<?xml version="1.0" encoding="UTF-8" standalone="no"?>
<svg
   xmlns:dc="http://purl.org/dc/elements/1.1/"
   xmlns:cc="http://creativecommons.org/ns#"
   xmlns:rdf="http://www.w3.org/1999/02/22-rdf-syntax-ns#"
   xmlns:svg="http://www.w3.org/2000/svg"
   xmlns="http://www.w3.org/2000/svg"
   xmlns:xlink="http://www.w3.org/1999/xlink"
   xmlns:sodipodi="http://sodipodi.sourceforge.net/DTD/sodipodi-0.dtd"
   xmlns:inkscape="http://www.inkscape.org/namespaces/inkscape"
   width="1000"
   height="532.51306"
   viewBox="0 0 1000 532.51306"
   version="1.1"
   id="svg53"
   sodipodi:docname="logo_Corporate_IO.svg"
   inkscape:version="0.92.3 (2405546, 2018-03-11)">
  <metadata
     id="metadata57">
    <rdf:RDF>
      <cc:Work
         rdf:about="">
        <dc:format>image/svg+xml</dc:format>
        <dc:type
           rdf:resource="http://purl.org/dc/dcmitype/StillImage" />
      </cc:Work>
    </rdf:RDF>
  </metadata>
  <sodipodi:namedview
     pagecolor="#ffffff"
     bordercolor="#666666"
     borderopacity="1"
     objecttolerance="10"
     gridtolerance="10"
     guidetolerance="10"
     inkscape:pageopacity="0"
     inkscape:pageshadow="2"
     inkscape:window-width="1366"
     inkscape:window-height="705"
     id="namedview55"
     showgrid="false"
     inkscape:zoom="0.88764468"
     inkscape:cx="506.78145"
     inkscape:cy="219.77184"
     inkscape:window-x="-8"
     inkscape:window-y="-8"
     inkscape:window-maximized="1"
     inkscape:current-layer="svg53" />
  <title
     id="title2">logo_Corporate_IO</title>
  <defs
     id="defs6">
    <polygon
       id="path-1"
       points="15,15 0,15 0,0 15,0 " />
    <polygon
       id="path-3"
       points="10,10 0,10 0,0 10,0 " />
  </defs>
  <g
     id="logo_Corporate_IO"
     style="fill:none;fill-rule:evenodd;stroke:none;stroke-width:1"
     transform="matrix(14.512731,0,0,14.512731,0,-74.440193)">
    <g
       id="logo-indosat-ooredoo-B2B-(3)"
       transform="translate(0,5)">
      <path
         d="M 68.90502,6.647281 C 68.85784,3.7417881 66.478181,1.4110266 63.558917,1.4110266 c -2.919264,0 -5.298922,2.3307615 -5.346103,5.2362544 v 2.9670148 0 c 0.0135,-2.6107619 -2.101751,-4.738096 -4.724545,-4.7515337 -2.622793,-0.013438 -4.759931,2.0921094 -4.773431,4.7028713 l -0.007,-1.1456514 v 0 c 0,-2.6107619 -2.126194,-4.7272026 -4.748988,-4.7272026 -2.622793,0 -4.748987,2.1164407 -4.748987,4.7272026 V 9.4836026 C 39.242663,6.8728407 37.143047,4.7299445 34.520253,4.69731 31.897459,4.664675 29.744688,6.7546606 29.711903,9.3654225 v -2.1286315 0 c 0,-2.6107618 -2.126195,-4.7272024 -4.748988,-4.7272024 -2.622794,0 -4.748988,2.1164406 -4.748988,4.7272024 l -0.0098,-2.3802855 v 0 c 0,-2.6107619 -2.126194,-4.72720261 -4.748988,-4.72720261 -2.622794,0 -4.748988,2.11644071 -4.748988,4.72720261 v 5.3403485 0 c 0,-2.9428661 -2.3966586,-5.3285305 -5.353087,-5.3285305 C 2.3966587,4.8683235 0,7.2539879 0,10.196854 v 17.740913 c 0.04718166,2.905493 2.426839,5.236255 5.3461032,5.236255 2.9192642,0 5.2989218,-2.330762 5.3461028,-5.236255 v 1.778263 c 0,2.610761 2.126195,4.727202 4.748988,4.727202 2.622794,0 4.748988,-2.116441 4.748988,-4.727202 v -1.824145 h 0.0098 v 4.20304 c 0,2.610762 2.126195,4.727202 4.748988,4.727202 2.622794,0 4.748988,-2.11644 4.748988,-4.727202 v -2.163391 c 0.06287,2.610762 2.24003,4.676471 4.862824,4.613889 2.622794,-0.06258 4.698022,-2.229754 4.635152,-4.840516 v -1.063621 c 0.03278,2.610762 2.185557,4.700747 4.80835,4.668113 2.622794,-0.03263 4.722411,-2.175531 4.689626,-4.786293 l 0.007,1.194314 c 0,2.610762 2.126195,4.727202 4.748988,4.727202 2.622794,0 4.748988,-2.11644 4.748988,-4.727202 v -1.785214 c 0.04718,2.905493 2.426839,5.236254 5.346103,5.236254 2.919265,0 5.298922,-2.330761 5.346104,-5.236254 V 6.647281 Z"
         id="Path"
         inkscape:connector-curvature="0"
         style="fill:#ffd500;fill-rule:nonzero" />
      <path
         d="m 43.954676,22.037106 c -0.971023,7.68e-4 -1.757639,0.784813 -1.757125,1.751382 5.14e-4,0.966568 0.787964,1.749784 1.758987,1.749528 0.971023,-2.56e-4 1.758057,-0.783886 1.758057,-1.750455 0,-0.46449 -0.185464,-0.909936 -0.515553,-1.23825 -0.330089,-0.328314 -0.777735,-0.512574 -1.244366,-0.512205 z"
         id="path9"
         inkscape:connector-curvature="0"
         style="fill:#ed1c24;fill-rule:nonzero" />
      <path
         d="m 62.964595,17.874387 c -1.868681,-8.76e-4 -3.628483,0.874989 -4.748988,2.363601 -1.1221,-1.486358 -2.88116,-2.360824 -4.748988,-2.360824 -1.867827,0 -3.626887,0.874466 -4.748987,2.360824 -0.444068,-0.588622 -0.993903,-1.090207 -1.62164,-1.479336 l -0.007,5.026129 c 0.0047,1.417004 -0.952115,2.65856 -2.328282,3.021082 -1.376168,0.362523 -2.824711,-0.245384 -3.524747,-1.479224 -0.700036,-1.233839 -0.475075,-2.782541 0.547397,-3.768463 1.022473,-0.985922 2.584678,-1.1605 3.80132,-0.4248 l 0.125709,0.07786 v -3.076853 c -2.39832,-0.735646 -5.002507,0.105261 -6.510304,2.102215 -1.121762,-1.486879 -2.880945,-2.361749 -4.748988,-2.361749 -1.868042,0 -3.627225,0.87487 -4.748988,2.361749 -1.122438,-1.485838 -2.881375,-2.359901 -4.748987,-2.359901 -1.867613,0 -3.62655,0.874063 -4.748988,2.359901 -1.122101,-1.486358 -2.881161,-2.360825 -4.748988,-2.360825 -1.867827,0 -3.626888,0.874467 -4.748988,2.360825 C 9.1727458,18.199162 6.5014008,17.367367 4.0749125,18.171776 1.6484243,18.976185 0.01152432,21.236214 0.01152432,23.782 c 0,2.545786 1.63689998,4.805815 4.06338818,5.610224 2.4264883,0.804409 5.0978333,-0.02739 6.6312615,-2.064822 1.1221,1.486358 2.881161,2.360825 4.748988,2.360825 1.867827,0 3.626887,-0.874467 4.748988,-2.360825 1.122438,1.485838 2.881375,2.359901 4.748988,2.359901 1.867612,0 3.626549,-0.874063 4.748987,-2.359901 1.122101,1.486358 2.881161,2.360825 4.748988,2.360825 1.867828,0 3.626888,-0.874467 4.748988,-2.360825 1.121762,1.486879 2.880946,2.361749 4.748988,2.361749 1.868043,0 3.627226,-0.87487 4.748988,-2.361749 1.122438,1.485838 2.881375,2.359901 4.748988,2.359901 1.867613,0 3.626549,-0.874063 4.748988,-2.359901 1.676469,2.224765 4.68382,2.985989 7.224287,1.828619 2.540468,-1.157369 3.927382,-3.920503 3.331659,-6.637627 -0.595723,-2.717125 -3.013063,-4.65382 -5.806959,-4.65235 z"
         id="path11"
         inkscape:connector-curvature="0"
         style="fill:#ed1c24;fill-rule:nonzero" />
      <path
         d="m 45.584696,21.133376 c -1.212919,-0.738276 -2.773626,-0.568401 -3.797599,0.41335 -1.023974,0.981751 -1.253027,2.527837 -0.557345,3.762023 0.695682,1.234187 2.140688,1.845283 3.516069,1.486953 1.375382,-0.358329 2.334348,-1.595733 2.33341,-3.010921 l 0.007,-5.026129 c -0.428769,-0.265132 -0.889674,-0.474905 -1.37162,-0.624269 v 3.076853 z m -1.63002,4.40186 c -0.971023,-7.68e-4 -1.757639,-0.784813 -1.757125,-1.751382 5.14e-4,-0.966568 0.787964,-1.749784 1.758987,-1.749528 0.971023,2.56e-4 1.758059,0.783886 1.758059,1.750455 7.4e-4,0.464972 -0.184396,0.911133 -0.514566,1.240049 -0.330169,0.328915 -0.778239,0.513557 -1.245355,0.513187 z"
         id="Shape"
         inkscape:connector-curvature="0"
         style="fill:#ffffff;fill-rule:nonzero" />
      <path
         d="m 53.462429,26.899174 c -1.264583,0.0011 -2.405275,-0.756282 -2.889993,-1.918922 -0.484719,-1.16264 -0.217965,-2.501456 0.67583,-3.391947 0.893796,-0.890492 2.238542,-1.157218 3.406973,-0.675763 1.168431,0.481455 1.930348,1.616237 1.930348,2.875019 -0.0023,1.71646 -1.398791,3.107784 -3.123158,3.111613 z m 0,-4.86624 c -0.711383,-5.61e-4 -1.353032,0.425567 -1.625658,1.079622 -0.272626,0.654056 -0.122519,1.407186 0.380304,1.908101 0.502824,0.500915 1.259305,0.650931 1.916592,0.380076 0.657286,-0.270856 1.085888,-0.909223 1.085888,-1.617343 -0.0031,-0.964261 -0.788418,-1.744758 -1.757126,-1.746284 z"
         id="path14"
         inkscape:connector-curvature="0"
         style="fill:#ffffff;fill-rule:nonzero" />
      <path
         d="m 62.964595,26.899173 c -1.726233,-7.68e-4 -3.125069,-1.394224 -3.124555,-3.112538 5.15e-4,-1.718315 1.400184,-3.110941 3.126417,-3.110685 1.726234,2.56e-4 3.125486,1.393297 3.125486,3.111611 -0.0023,1.718085 -1.401344,3.11008 -3.127348,3.111612 z m 0,-4.866238 c -0.971205,0 -1.758522,0.783706 -1.758522,1.750455 0,0.96675 0.787317,1.750456 1.758522,1.750456 0.971205,0 1.758522,-0.783706 1.758522,-1.750456 -0.0023,-0.96512 -0.788951,-1.746287 -1.758522,-1.746284 z"
         id="path16"
         inkscape:connector-curvature="0"
         style="fill:#ffffff;fill-rule:nonzero" />
      <path
         d="M 15.445385,26.899173 C 13.7197,26.896103 12.322967,25.50163 12.32502,23.78386 c 0.0021,-1.717769 1.402124,-3.108926 3.127811,-3.107905 1.725687,0.001 3.124092,1.393835 3.124092,3.111606 -0.0023,1.719713 -1.403899,3.112381 -3.131538,3.111612 z m 0,-4.866239 c -0.711383,-5.61e-4 -1.353033,0.425567 -1.625659,1.079622 -0.272626,0.654056 -0.122519,1.407186 0.380305,1.908101 0.502824,0.500915 1.259305,0.650931 1.916591,0.380076 0.657286,-0.270856 1.085888,-0.909223 1.085888,-1.617343 -0.0031,-0.964261 -0.788417,-1.744758 -1.757125,-1.746284 z"
         id="path18"
         inkscape:connector-curvature="0"
         style="fill:#ffffff;fill-rule:nonzero" />
      <path
         d="M 5.9418219,26.899173 C 4.6773656,26.899735 3.5371017,26.141972 3.0528237,24.979287 2.5685456,23.816602 2.8356439,22.478015 3.7295498,21.587812 c 0.8939059,-0.890203 2.2385428,-1.156674 3.4068023,-0.675138 1.1682595,0.481537 1.9300244,1.616231 1.9300244,2.874887 -0.00231,1.717002 -1.3996419,3.108549 -3.1245546,3.111612 z m 0,-4.866239 C 5.2297472,22.032373 4.5875,22.45899 4.3147398,23.113736 4.0419796,23.768482 4.192462,24.522319 4.695975,25.023522 5.199488,25.524725 5.9567991,25.674517 6.6145624,25.403008 7.2723257,25.131499 7.700909,24.492198 7.7003447,23.78339 7.6972674,22.818588 6.9110754,22.037867 5.9418219,22.037106 Z"
         id="path20"
         inkscape:connector-curvature="0"
         style="fill:#ffffff;fill-rule:nonzero" />
      <path
         d="m 34.560061,26.900563 c -0.101964,0 -0.19415,0 -0.279352,-0.0097 h -0.07263 l -0.100567,-0.0083 c -1.672142,-0.181802 -2.899947,-1.64814 -2.778361,-3.318131 0.121586,-1.669991 1.548962,-2.944784 3.229965,-2.884691 1.681003,0.06009 3.012835,1.433524 3.013816,3.107894 0.0012,0.197477 -0.01801,0.394555 -0.05732,0.58812 H 32.80294 l 0.09498,0.226628 c 0.246613,0.470685 0.695665,0.803496 1.219372,0.90373 0.15439,0.02792 0.310999,0.04188 0.467915,0.04171 h 0.07822 c 0.431447,-0.0033 0.848458,-0.155089 1.180263,-0.429619 l 0.03911,-0.03615 1.271053,0.677102 -0.05866,0.06674 c -0.571275,0.685444 -1.386984,1.046936 -2.426174,1.074743 z M 34.45251,22.034325 c -0.717107,-0.0028 -1.36301,0.431157 -1.628623,1.094209 l -0.0084,0.02086 h 3.267024 v -0.01807 c -0.2629,-0.665846 -0.91133,-1.101128 -1.63002,-1.094208 z"
         id="path22"
         inkscape:connector-curvature="0"
         style="fill:#ffffff;fill-rule:nonzero" />
      <g
         id="Group-3"
         transform="translate(32,16)">
        <mask
           id="mask-2"
           fill="white">
          <use
             xlink:href="#path-1"
             id="use24"
             x="0"
             y="0"
             width="100%"
             height="100%" />
        </mask>
        <g
           id="Clip-2" />
      </g>
      <g
         id="g34"
         transform="translate(22,26)">
        <mask
           id="mask-4"
           fill="white">
          <use
             xlink:href="#path-3"
             id="use29"
             x="0"
             y="0"
             width="100%"
             height="100%" />
        </mask>
        <g
           id="g32" />
      </g>
      <path
         d="m 22.008765,26.742063 v -2.953111 -0.171014 c 0.06809,-1.417629 1.091632,-2.609576 2.487842,-2.897168 1.39621,-0.287591 2.810919,0.402126 3.438616,1.676438 l -1.208199,0.639562 c -0.351996,-0.739721 -1.172601,-1.137175 -1.974567,-0.956368 -0.801967,0.180808 -1.370441,0.891436 -1.367882,1.70994 v 2.951721 z"
         id="path36"
         inkscape:connector-curvature="0"
         style="fill:#ffffff;fill-rule:nonzero" />
      <path
         d="m 28.100041,7.6594585 h -1.421903 v 2.9072295 l -0.07962,-0.04866 c -0.496243,-0.305905 -1.068675,-0.467262 -1.652368,-0.465769 -1.277139,-0.0011 -2.429124,0.763885 -2.918517,1.938125 -0.489393,1.174241 -0.219754,2.526322 0.68312,3.425452 0.902873,0.89913 2.261066,1.16813 3.440935,0.681502 1.179868,-0.486627 1.948913,-1.632989 1.948349,-2.90427 z m -3.153887,7.2548665 c -0.95464,-0.0015 -1.727424,-0.772848 -1.726397,-1.72311 10e-4,-0.950261 0.775479,-1.719915 1.73012,-1.719404 0.954641,5.11e-4 1.728261,0.770993 1.728261,1.721255 -3.71e-4,0.456875 -0.183055,0.894891 -0.507865,1.217689 -0.32481,0.322799 -0.765139,0.503938 -1.224119,0.50357 z"
         id="path38"
         inkscape:connector-curvature="0"
         style="fill:#221e20;fill-rule:nonzero" />
      <path
         d="m 37.507227,14.397113 c 0.167594,-0.389123 0.25271,-0.808487 0.250082,-1.231854 0.0018,-0.425534 -0.08326,-0.847004 -0.250082,-1.238805 -0.163802,-0.376122 -0.397422,-0.718105 -0.688604,-1.008006 -0.596625,-0.600519 -1.4115,-0.9359023 -2.259959,-0.930147 -0.843328,-0.00606 -1.652951,0.329151 -2.243198,0.928756 -0.297327,0.288989 -0.534627,0.633386 -0.698381,1.013568 -0.166941,0.390301 -0.252021,0.810435 -0.250082,1.234634 -0.0026,0.423816 0.08249,0.843632 0.250082,1.233244 0.165391,0.377645 0.402531,0.71992 0.698381,1.008006 0.290143,0.289235 0.63221,0.521736 1.008461,0.685445 0.391585,0.164367 0.812559,0.248081 1.237531,0.246127 0.427772,0.0015 0.851476,-0.08271 1.24591,-0.247518 0.764023,-0.327273 1.373244,-0.933201 1.702652,-1.69345 z m -1.378603,-0.575607 c -0.08637,0.201232 -0.211663,0.383587 -0.368746,0.536677 -0.153777,0.154987 -0.337071,0.277883 -0.539149,0.361492 -0.210846,0.08436 -0.436228,0.126866 -0.663462,0.125131 -0.224982,0.0019 -0.448106,-0.04066 -0.656477,-0.125131 -0.200102,-0.08648 -0.382417,-0.209033 -0.537754,-0.361492 -0.152662,-0.153391 -0.274917,-0.334045 -0.360364,-0.532506 -0.08929,-0.208743 -0.134457,-0.433547 -0.132692,-0.660418 -0.0011,-0.226361 0.04401,-0.450586 0.132692,-0.659027 0.08383,-0.201463 0.205686,-0.385059 0.358968,-0.540848 0.156121,-0.150495 0.337689,-0.272397 0.536356,-0.360102 0.424051,-0.171647 0.898682,-0.171647 1.322733,0 0.201124,0.08322 0.383489,0.20566 0.536356,0.360102 0.155882,0.154571 0.280161,0.337774 0.365951,0.539457 0.08604,0.209633 0.130169,0.433964 0.129899,0.660418 0.0041,0.224909 -0.03823,0.448261 -0.124311,0.656247 z"
         id="path40"
         inkscape:connector-curvature="0"
         style="fill:#221e20;fill-rule:nonzero" />
      <path
         d="m 56.559049,11.918112 c -0.322783,-0.756978 -0.928218,-1.359636 -1.688685,-1.680938 -0.79921,-0.3360572 -1.700992,-0.3360572 -2.500202,0 -0.377306,0.161853 -0.721508,0.391368 -1.015445,0.677103 -0.290397,0.288074 -0.522715,0.628817 -0.684413,1.003835 -0.170543,0.395139 -0.256639,0.821273 -0.252814,1.251318 -0.0031,0.424997 0.07466,0.846735 0.229069,1.242976 0.146088,0.375964 0.365392,0.719476 0.645303,1.010788 0.286096,0.29331 0.629872,0.524756 1.009859,0.679882 0.419286,0.166204 0.867268,0.248871 1.318542,0.243312 0.639169,-0.01969 1.252523,-0.255573 1.738968,-0.66876 v 0.488014 h 1.452631 v -3.003163 c 0.0029,-0.427707 -0.08322,-0.851376 -0.252813,-1.244367 z m -1.335304,1.938153 c -0.0844,0.209362 -0.211916,0.398809 -0.374332,0.556141 -0.160178,0.156006 -0.350159,0.278453 -0.558705,0.360102 -0.889055,0.359156 -1.903404,-0.05547 -2.282307,-0.932927 -0.186171,-0.42755 -0.186171,-0.912751 0,-1.340301 0.178706,-0.416565 0.51117,-0.748997 0.928846,-0.928756 0.431341,-0.183555 0.919327,-0.183555 1.350668,0 0.207919,0.08849 0.397403,0.214864 0.558704,0.372614 0.158633,0.15778 0.285668,0.344156 0.374332,0.54919 0.09337,0.211125 0.140966,0.439477 0.139676,0.670151 0.002,0.238101 -0.04454,0.474131 -0.136882,0.693786 z"
         id="path42"
         inkscape:connector-curvature="0"
         style="fill:#221e20;fill-rule:nonzero" />
      <path
         d="m 15.397895,9.9869106 c -1.763258,0.0023 -3.192084,1.4245704 -3.194393,3.1797394 v 2.992041 h 1.458219 v -3.058778 c 0.0095,-0.20387 0.05681,-0.404225 0.139676,-0.590901 0.180559,-0.415623 0.51383,-0.746868 0.931639,-0.925975 0.429362,-0.176586 0.91153,-0.176586 1.340891,0 0.204534,0.08925 0.390299,0.21614 0.547531,0.374005 0.159612,0.159638 0.286721,0.348483 0.374331,0.556141 0.08284,0.184729 0.130215,0.38326 0.139677,0.585339 V 16.1573 h 1.456821 v -2.99065 c -0.0023,-1.755169 -1.431135,-3.1774415 -3.194392,-3.1797394 z"
         id="path44"
         inkscape:connector-curvature="0"
         style="fill:#221e20;fill-rule:nonzero" />
      <path
         d="m 46.232793,13.380764 c -0.1916,-0.231512 -0.429415,-0.420892 -0.69838,-0.556141 -0.267823,-0.136202 -0.548547,-0.245648 -0.838057,-0.326734 -0.279352,-0.07925 -0.546133,-0.161281 -0.791963,-0.244702 -0.198287,-0.06335 -0.386433,-0.15465 -0.558705,-0.271119 -0.09281,-0.06147 -0.145958,-0.167281 -0.139676,-0.278071 -0.0019,-0.04908 0.01125,-0.09757 0.03771,-0.139035 0.03635,-0.0555 0.08392,-0.102851 0.139676,-0.139035 0.08091,-0.04709 0.167822,-0.0831 0.258401,-0.107057 0.333654,-0.06716 0.67907,-0.04753 1.002874,0.057 0.270333,0.0892 0.52383,0.222652 0.750061,0.39486 l 0.219291,0.152939 0.636923,-1.167897 -0.166214,-0.123741 c -0.301518,-0.220507 -0.630086,-0.401792 -0.977733,-0.539457 -0.615323,-0.2491 -1.297366,-0.2829232 -1.934514,-0.095935 -0.263189,0.07554 -0.511608,0.194949 -0.734697,0.35315 -0.222508,0.156996 -0.405585,0.363024 -0.534959,0.602023 -0.137279,0.256499 -0.206509,0.543634 -0.201134,0.834212 -0.01095,0.321926 0.08475,0.638504 0.272369,0.900949 0.1805,0.235979 0.408343,0.432001 0.669048,0.575607 0.280324,0.155374 0.576179,0.281188 0.882753,0.375395 l 0.956782,0.300317 c 0.171687,0.05176 0.333913,0.130626 0.480486,0.233579 0.07872,0.0587 0.120636,0.154282 0.110344,0.251654 -0.0011,0.05507 -0.02023,0.108281 -0.05447,0.151549 -0.0568,0.07267 -0.128142,0.132798 -0.209514,0.176575 -0.115126,0.06362 -0.23884,0.110446 -0.367348,0.139035 -0.307151,0.06465 -0.624489,0.06465 -0.93164,0 -0.132508,-0.03157 -0.260924,-0.07823 -0.382712,-0.139035 -0.129819,-0.06272 -0.254104,-0.136204 -0.371539,-0.219676 -0.131295,-0.09315 -0.269575,-0.19743 -0.419028,-0.308659 l -0.203927,-0.1585 -0.738887,1.122015 0.153644,0.139036 c 0.329867,0.294364 0.701715,0.538471 1.103441,0.724374 0.404726,0.191069 0.846862,0.290769 1.294797,0.292011 0.318088,0.0014 0.635012,-0.03834 0.942814,-0.118217 0.293515,-0.07387 0.572213,-0.197065 0.824089,-0.364272 0.24486,-0.162765 0.448522,-0.379769 0.595021,-0.634002 0.152718,-0.276116 0.230242,-0.587187 0.224878,-0.902339 0.0159,-0.339795 -0.0906,-0.674077 -0.300304,-0.94266 z"
         id="path46"
         inkscape:connector-curvature="0"
         style="fill:#221e20;fill-rule:nonzero" />
      <rect
         id="Rectangle"
         x="5.1358905"
         y="10.437386"
         width="1.4721862"
         height="5.7213054"
         style="fill:#221e20;fill-rule:nonzero" />
      <path
         d="m 64.56249,14.737749 c -0.154048,0.0053 -0.308018,-0.01252 -0.456741,-0.05283 -0.09029,-0.02411 -0.170529,-0.07621 -0.229069,-0.148768 -0.05382,-0.07309 -0.08926,-0.157955 -0.10336,-0.247483 -0.02001,-0.144679 -0.03027,-0.290528 -0.03073,-0.436571 v -2.312158 h 0.89253 V 10.160708 H 63.74259 V 7.8332527 H 62.295546 V 10.160705 H 61.57342 v 1.379231 h 0.722126 v 2.577715 c -0.0049,0.284623 0.03182,0.568441 0.108947,0.842555 0.06574,0.242556 0.187733,0.466376 0.356174,0.653466 0.179645,0.187763 0.403293,0.328215 0.650891,0.408764 0.304503,0.09742 0.623014,0.144391 0.942813,0.139035 h 0.364555 v -1.423722 z"
         id="path49"
         inkscape:connector-curvature="0"
         style="fill:#221e20;fill-rule:nonzero" />
    </g>
  </g>
</svg>
