<?xml version="1.0" encoding="UTF-8"?>
<svg width="155" height="134.1" version="1.1" viewBox="0 0 41.01 35.49" xmlns="http://www.w3.org/2000/svg">
 <title>MRT Jakarta logo vertical version</title>
 <defs>
  <clipPath id="vlpa">
   <path d="m0 595.3h280.6v-595.3h-280.6z"/>
  </clipPath>
  <clipPath id="vlpb">
   <path d="m154.5 540.5h41.31v26.13h-41.31z"/>
  </clipPath>
 </defs>
 <g transform="translate(1.336 -56.22)">
  <g transform="matrix(2.726 0 0 2.726 1.164 -157.1)">
   <g transform="matrix(.3528 0 0 -.3528 -55.18 278.4)">
    <g clip-path="url(#vlpb)">
     <g transform="translate(179.2 550.5)">
      <path d="m0 0h5.055l2.917 10.58c0.913 3.305-1.42 5.56-4.628 5.56-4.413 0-6.864-2.566-7.874-6.221-0.077-0.292-4.083-14.68-4.083-14.68-0.252-0.719-0.525-1.225-1.516-1.225-0.661 0-1.245 0.544-1.051 1.205l4.22 15.36c0.836 3.188-1.75 5.56-4.628 5.56-4.627 0-6.785-2.255-7.699-5.56l-5.424-19.7h4.821l5.541 20.06c0.175 0.68 0.622 1.225 1.556 1.225 0.661 0 1.069-0.545 0.875-1.225l-4.044-14.68c-0.953-3.441 1.244-6.163 4.511-6.241 4.18-0.077 6.61 1.225 7.951 6.241l4.083 14.68c0.175 0.68 0.681 1.225 1.556 1.225 0.661 0 1.069-0.545 0.875-1.225z" style="fill:#0056b8"/>
     </g>
    </g>
    <g clip-path="url(#vlpa)">
     <g transform="translate(195.8 566)">
      <path d="m0 0h-4.802l-5.541-20.14c-0.233-0.661-0.447-1.069-1.516-1.069-0.622 0-1.07 0.505-0.914 1.069l0.835 3.053h-5.054s-0.583-2.159-0.603-2.198c-1.128-4.082 1.07-6.24 4.511-6.24 4.86 0 6.824 2.799 7.776 6.24 0 0.039 5.308 19.29 5.308 19.29" style="fill:#45bb3c"/>
     </g>
     <g transform="translate(163.2 536.5)" style="fill:#0056b8">
      <path d="m0 0c-0.493 0-1.064-0.286-1.367-0.683-0.047 0.476-0.429 0.683-0.89 0.683-0.556 0-1.048-0.223-1.414-0.651h-0.016l0.175 0.54h-1.032l-1.112-3.893h1.064l0.604 2.082c0.142 0.476 0.509 1.08 1.08 1.08 0.27 0 0.461-0.191 0.429-0.413 0-0.08-0.016-0.175-0.047-0.287l-0.7-2.462h1.08l0.588 2.082c0.144 0.476 0.525 1.08 1.097 1.08 0.27 0 0.444-0.191 0.429-0.413 0-0.08-0.031-0.175-0.048-0.287l-0.715-2.462h1.08l0.652 2.288c0.064 0.238 0.159 0.492 0.174 0.731 0.048 0.667-0.492 0.985-1.111 0.985" style="fill:#0056b8"/>
     </g>
     <g transform="translate(167.7 536.5)" style="fill:#0056b8">
      <path d="m0 0c-0.096 0.016-0.207 0.032-0.317 0.032-0.573 0-1.129-0.286-1.399-0.826l-0.015 0.015 0.206 0.699h-1.017l-1.112-3.892h1.064l0.492 1.732c0.207 0.651 0.54 1.271 1.368 1.271 0.142 0 0.301-0.032 0.444-0.064z" style="fill:#0056b8"/>
     </g>
     <g transform="translate(169.5 537.6)" style="fill:#0056b8">
      <path d="m0 0h-1.064l-1.145-3.988c-0.031-0.143-0.063-0.27-0.079-0.365-0.064-0.636 0.461-0.794 0.953-0.794 0.223 0 0.461 0.015 0.668 0.031l0.254 0.826c-0.127-0.016-0.254-0.016-0.382-0.016-0.158 0-0.365 0-0.35 0.286 0 0.032 0.033 0.096 0.048 0.175l0.557 1.939h0.746l0.223 0.715h-0.763z" style="fill:#0056b8"/>
     </g>
     <g transform="translate(173.6 537.9)" style="fill:#0056b8">
      <path d="m0 0h-0.477l-0.222-0.763h0.476z" style="fill:#0056b8"/>
     </g>
     <g transform="translate(171.4 531.9)" style="fill:#0056b8">
      <path d="m0 0c-0.079-0.207-0.207-0.381-0.492-0.381-0.096 0-0.175 0.015-0.271 0.031l-0.111-0.397c0.111-0.016 0.207-0.032 0.317-0.032 0.605 0 0.859 0.255 1.018 0.763l1.318 4.56h-0.476z" style="fill:#0056b8"/>
     </g>
     <g transform="translate(175.8 533.9)" style="fill:#0056b8">
      <path d="m0 0c-0.19-0.683-0.715-1.144-1.478-1.144-0.445 0-0.842 0.207-0.81 0.699 0.063 0.811 1.017 0.842 1.604 0.89 0.239 0.016 0.715 0.032 0.874 0.222l0.016-0.015zm0.921 1.7c0.064 0.699-0.746 0.874-1.271 0.874-0.841 0-1.541-0.397-1.748-1.271h0.477c0.143 0.652 0.684 0.874 1.287 0.874 0.365 0 0.811-0.111 0.778-0.556-0.031-0.524-0.206-0.699-0.523-0.763-0.303-0.079-0.747-0.047-1.24-0.111-0.699-0.127-1.382-0.397-1.446-1.207-0.048-0.763 0.461-1.081 1.161-1.081 0.54 0 1.095 0.27 1.397 0.715l0.017-0.016c-0.017-0.063-0.017-0.143-0.033-0.206-0.015-0.255 0.127-0.43 0.382-0.43 0.127 0 0.285 0.017 0.397 0.048l0.095 0.366c-0.063 0-0.127-0.016-0.19-0.016-0.111 0-0.238 0.032-0.238 0.159 0.031 0.238 0.127 0.444 0.365 1.318 0.095 0.35 0.317 0.938 0.333 1.303" style="fill:#0056b8"/>
     </g>
     <g transform="translate(181 536.4)" style="fill:#0056b8">
      <path d="m0 0h-0.619l-2.431-1.907-0.016 0.016 0.985 3.385h-0.477l-1.556-5.387h0.476l0.413 1.414 0.874 0.684 0.873-2.098h0.525l-1.001 2.384z" style="fill:#0056b8"/>
     </g>
     <g transform="translate(183.2 533.9)" style="fill:#0056b8">
      <path d="m0 0c-0.206-0.683-0.715-1.144-1.478-1.144-0.444 0-0.841 0.207-0.81 0.699 0.063 0.811 1.017 0.842 1.605 0.89 0.239 0.016 0.715 0.032 0.873 0.222l0.017-0.015zm0.922 1.7c0.063 0.699-0.747 0.874-1.272 0.874-0.841 0-1.541-0.397-1.747-1.271h0.477c0.142 0.652 0.683 0.874 1.287 0.874 0.365 0 0.81-0.095 0.778-0.556-0.048-0.524-0.207-0.699-0.524-0.763-0.302-0.079-0.747-0.047-1.239-0.111-0.7-0.127-1.383-0.397-1.447-1.207-0.063-0.763 0.461-1.081 1.161-1.081 0.54 0 1.096 0.27 1.398 0.715l0.016-0.016c-0.016-0.063-0.016-0.143-0.033-0.206-0.015-0.255 0.128-0.43 0.382-0.43 0.127 0 0.286 0.017 0.398 0.048l0.094 0.366c-0.063 0-0.127-0.016-0.19-0.016-0.111 0-0.238 0.032-0.238 0.159 0.015 0.238 0.127 0.444 0.365 1.318 0.096 0.35 0.318 0.938 0.334 1.303" style="fill:#0056b8"/>
     </g>
     <g transform="translate(187.3 536.5)" style="fill:#0056b8">
      <path d="m0 0h-0.255c-0.682 0.016-1.128-0.397-1.477-0.954h-0.016l0.27 0.906h-0.429l-1.144-3.892h0.477l0.588 2.033c0.222 0.731 0.73 1.414 1.573 1.43h0.269z" style="fill:#0056b8"/>
     </g>
     <g transform="translate(187.2 533.1)" style="fill:#0056b8">
      <path d="m0 0c0 0.127 0.032 0.19 0.079 0.381l0.732 2.495h0.778l0.111 0.397h-0.778l0.333 1.176h-0.461l-0.349-1.176-0.111-0.397-0.731-2.59c-0.064-0.159-0.08-0.318-0.095-0.397-0.032-0.461 0.317-0.556 0.682-0.556 0.16 0 0.319 0.016 0.477 0.031l0.111 0.413c-0.19-0.031-0.365-0.047-0.555-0.047-0.175 0-0.239 0.143-0.223 0.27" style="fill:#0056b8"/>
     </g>
     <g transform="translate(191.4 533.9)" style="fill:#0056b8">
      <path d="m0 0c-0.206-0.683-0.715-1.144-1.478-1.144-0.46 0-0.858 0.207-0.81 0.699 0.063 0.811 1.017 0.842 1.604 0.89 0.24 0.016 0.7 0.032 0.874 0.222v-0.015zm0.223-0.921c0.015 0.238 0.111 0.444 0.349 1.318 0.112 0.35 0.318 0.938 0.35 1.303 0.048 0.699-0.763 0.874-1.287 0.874-0.826 0-1.541-0.397-1.733-1.271h0.478c0.142 0.652 0.683 0.874 1.286 0.874 0.35 0 0.811-0.095 0.779-0.556-0.048-0.524-0.222-0.699-0.541-0.763-0.301-0.079-0.73-0.047-1.239-0.111-0.698-0.127-1.366-0.397-1.43-1.207-0.063-0.763 0.446-1.081 1.161-1.081 0.54 0 1.095 0.27 1.398 0.715l0.016-0.016c-0.016-0.063-0.033-0.143-0.033-0.206-0.015-0.255 0.112-0.43 0.382-0.43 0.127 0 0.286 0.017 0.381 0.048l0.111 0.366c-0.079 0-0.127-0.016-0.19-0.016-0.111 0-0.254 0.032-0.238 0.159" style="fill:#0056b8"/>
     </g>
    </g>
   </g>
  </g>
 </g>
</svg>
