<?xml version="1.0" encoding="UTF-8"?>
<!DOCTYPE svg PUBLIC "-//W3C//DTD SVG 1.1//EN" "http://www.w3.org/Graphics/SVG/1.1/DTD/svg11.dtd">
<!-- Creator: CorelDRAW X5 -->
<svg xmlns="http://www.w3.org/2000/svg" xml:space="preserve" width="210mm" height="80.852mm" style="shape-rendering:geometricPrecision; text-rendering:geometricPrecision; image-rendering:optimizeQuality; fill-rule:evenodd; clip-rule:evenodd"
viewBox="0 0 21000 8085"
 xmlns:xlink="http://www.w3.org/1999/xlink">
 <defs>
  <style type="text/css">
   <![CDATA[
    .fil1 {fill:#E62129}
    .fil0 {fill:#FEFEFE}
    .fil2 {fill:black}
   ]]>
  </style>
 </defs>
 <g id="Layer_x0020_1">
  <metadata id="CorelCorpID_0Corel-Layer"/>
  <path class="fil0" d="M9580 4314c66,74 106,171 106,276 0,229 -187,416 -416,416 -155,0 -291,-86 -363,-213 -72,125 -207,210 -361,210 -229,0 -416,-187 -416,-416 0,-105 39,-201 104,-274 -187,-41 -328,-208 -328,-407 0,-229 187,-416 416,-416 61,0 119,13 171,37 -1,-13 -2,-27 -2,-41 0,-229 187,-416 416,-416 229,0 416,187 416,416 0,14 -1,27 -2,41 52,-23 109,-36 170,-36 229,0 416,187 416,416 0,198 -140,365 -326,406z"/>
  <path class="fil1" d="M9654 4338c18,28 34,58 46,89 19,51 30,106 30,163 0,127 -52,242 -135,325 -83,83 -199,135 -325,135 -84,0 -163,-23 -232,-63 -51,-30 -95,-69 -131,-115 -36,45 -80,84 -131,113 -68,40 -147,62 -231,62 -127,0 -242,-52 -325,-135 -83,-83 -135,-199 -135,-325 0,-57 10,-111 30,-162 12,-31 27,-61 45,-88 -78,-29 -145,-79 -196,-143 -64,-79 -102,-179 -102,-288 0,-127 52,-242 135,-325 83,-83 199,-135 325,-135 33,0 65,4 97,10 10,2 19,4 28,7 6,-118 56,-224 135,-302 83,-83 199,-135 325,-135 127,0 242,52 325,135 78,78 129,185 135,303 9,-3 18,-5 28,-7 31,-7 63,-10 96,-10 127,0 242,52 325,135 83,83 135,199 135,325 0,109 -38,209 -101,288 -51,63 -118,113 -195,142zm-1162 -810c-1,-13 -2,-27 -2,-41 0,-229 187,-416 416,-416 229,0 416,187 416,416 0,14 -1,27 -2,41 52,-23 109,-36 170,-36 229,0 416,187 416,416 0,198 -140,365 -326,406 66,74 106,171 106,276 0,229 -187,416 -416,416 -155,0 -291,-86 -363,-213 -72,125 -207,210 -361,210 -229,0 -416,-187 -416,-416 0,-105 39,-201 104,-274 -187,-41 -328,-208 -328,-407 0,-229 187,-416 416,-416 61,0 119,13 171,37z"/>
  <polygon class="fil1" points="8703,3463 9109,3463 9109,3869 9515,3869 9515,4276 9109,4276 9109,4682 8703,4682 8703,4276 8296,4276 8296,3869 8703,3869 "/>
  <path class="fil2" d="M10968 5057c-11,-2 -25,-5 -35,-11 -19,-8 -36,-30 -43,-49 0,0 -1,-1 -1,-1 -4,-12 -7,-24 -10,-35 -1,-6 -2,-12 -3,-18 -1,-13 -3,-26 -4,-39 0,-30 0,-59 1,-88 3,-22 4,-45 12,-66 6,-23 19,-45 37,-60 5,-3 10,-7 15,-9 3,-2 6,-3 9,-4 4,-1 7,-2 11,-3 11,-1 22,-3 33,-3 7,1 14,2 22,3 7,3 14,5 20,9 12,6 23,18 31,29 0,0 1,0 1,0 0,-1 1,-1 1,-2 0,-49 0,-99 0,-148 2,-2 4,-2 6,-3 28,0 57,0 86,0 2,0 3,2 5,3 0,162 0,324 0,487 -2,2 -4,2 -7,3 -27,0 -54,0 -81,0 -1,-1 -2,-2 -3,-3 0,-10 -1,-21 -1,-31 -1,0 -2,-1 -3,-1 -16,21 -26,28 -50,39 -12,3 -41,5 -49,2zm41 -71c-3,-1 -5,-1 -8,-2 -10,-5 -18,-10 -23,-21 -3,-3 -2,-8 -4,-10 -2,-8 -3,-15 -4,-23 -1,-10 -2,-20 -3,-29 0,-17 -1,-35 -1,-52 1,-16 2,-32 3,-48 2,-14 5,-31 14,-42 0,-6 18,-13 22,-14 7,0 14,0 21,0 3,1 7,2 10,3 2,2 5,3 7,5 7,7 11,14 13,23 3,3 2,11 5,15 1,9 2,18 4,27 1,40 3,80 -3,120 -1,6 -3,11 -4,17 -2,4 -3,7 -5,11 -1,5 -8,12 -11,15 -3,1 -5,3 -7,4 -8,2 -17,2 -25,3z"/>
  <path class="fil2" d="M11356 5059c0,-1 -1,-1 -1,-2 -14,-2 -30,-4 -43,-10 -5,-2 -9,-5 -13,-7 -6,-4 -11,-8 -16,-13 -3,-4 -9,-9 -11,-13 -5,0 -17,-32 -19,-35 -3,-9 -5,-18 -7,-27 -2,-18 -5,-36 -7,-54 0,-1 0,-1 0,-1 0,-20 0,-40 0,-61 0,-7 0,-14 2,-20 1,-19 4,-37 10,-55 3,-13 10,-24 16,-36 2,-3 4,-6 6,-9 1,-1 1,-1 2,-1 2,-5 12,-16 17,-18 0,-3 12,-8 15,-11 2,-1 4,-2 7,-3 7,-3 14,-5 21,-8 21,-4 42,-7 63,-7 10,1 20,2 29,3 11,3 22,6 32,10 5,3 9,5 14,8 0,1 8,6 10,7 0,0 0,1 0,1 17,15 28,35 34,56 0,0 1,1 1,2 3,15 8,31 8,46 3,13 3,27 3,40 0,23 -1,46 -1,70 -4,9 -1,25 -6,33 -2,7 -3,14 -4,21 -1,4 -3,8 -4,12 -1,3 -2,5 -3,8 -6,12 -13,23 -21,34 -3,2 -10,8 -11,10 -8,5 -17,13 -26,15 -14,7 -33,9 -49,11 0,0 0,1 0,2 -15,0 -31,0 -46,0 0,-1 0,-1 0,-2 -1,0 -1,0 -2,0 0,0 0,1 0,2 -1,0 -1,0 -2,0zm20 -65c-4,-2 -8,-3 -11,-4 0,-1 0,-1 0,-1 -8,-3 -11,-9 -15,-15 0,0 -1,0 -1,0 -2,-6 -5,-11 -7,-16 -4,-13 -5,-27 -5,-40 -5,-31 -1,-65 -1,-97 3,-20 2,-40 10,-58 2,-4 4,-8 7,-11 8,-9 14,-13 25,-15 6,0 20,-2 24,3 3,2 7,3 10,5 0,2 2,3 3,3 3,6 7,12 10,19 12,40 10,84 10,126 -1,16 -3,32 -4,48 -1,5 -2,10 -3,15 -2,6 -4,16 -8,20 -2,4 -6,8 -9,11 -5,2 -9,5 -14,7 -7,0 -14,1 -21,1z"/>
  <path class="fil2" d="M12088 5059c0,-1 0,-1 0,-2 -17,-2 -34,-4 -49,-12 -4,0 -12,-6 -16,-8 0,-1 0,-1 0,-1 -6,0 -20,-16 -23,-19 -9,-13 -19,-28 -22,-44 -6,-11 -7,-27 -9,-40 0,-10 -1,-20 -1,-29 -4,-9 2,-23 -2,-33 0,-13 1,-25 1,-38 1,-9 1,-18 2,-26 1,-8 2,-16 3,-24 3,-9 5,-19 8,-28 2,-6 5,-12 7,-17 2,-1 5,-10 6,-12 5,-7 10,-13 15,-19 5,-4 9,-8 14,-11 0,-4 15,-8 18,-12 2,-1 4,-1 6,-2 0,-1 1,-1 2,-1 24,-8 47,-11 72,-11 11,2 28,0 37,6 15,2 29,11 41,19 14,12 25,24 32,42 5,9 8,19 10,30 0,1 1,2 1,3 1,8 3,17 4,26 1,15 2,29 3,44 0,6 2,39 -1,41 -62,0 -123,0 -184,1 -2,1 -2,2 -3,4 0,11 -1,23 1,35 0,25 5,54 26,70 4,2 7,3 11,5 7,0 13,0 20,0 3,-1 6,-2 9,-3 11,-7 18,-17 23,-29 2,-11 6,-22 7,-33 1,-1 1,-3 2,-4 27,0 55,0 82,0 1,1 1,2 2,3 -1,8 -1,16 -2,25 -2,6 -2,14 -5,19 -5,21 -21,54 -42,65 0,3 -18,10 -22,12 -8,1 -16,4 -23,7 -7,1 -13,1 -19,2 0,0 0,1 0,2 -15,0 -30,0 -45,0zm-23 -237c-1,-1 -2,-1 -2,-2 0,-5 0,-9 0,-13 2,-17 1,-35 11,-49 0,-1 1,-3 2,-4 0,0 1,0 2,0 0,-5 9,-11 12,-13 2,-1 5,-2 8,-3 9,-1 21,-3 30,0 5,3 11,6 15,10 15,22 16,48 17,74 0,0 -1,0 -1,1 -31,0 -62,0 -93,1z"/>
  <path class="fil2" d="M12436 5059c0,-1 0,-1 0,-2 -13,-1 -26,-4 -38,-6 -6,-2 -11,-4 -17,-6 -14,-7 -33,-19 -39,-35 -11,-14 -12,-36 -14,-53 0,-9 0,-18 0,-26 1,-1 1,-2 2,-3 27,0 55,0 83,0 0,9 1,18 2,28 3,7 6,21 12,24 0,6 21,13 25,13 7,0 15,0 22,0 7,-1 14,-4 20,-8 6,-5 10,-12 14,-18 1,-7 2,-13 2,-20 -1,-4 -2,-8 -2,-12 -1,-2 -2,-3 -3,-5 -2,-2 -4,-4 -5,-6 -5,-4 -10,-8 -15,-11 -10,-3 -21,-9 -31,-12 -2,-2 -7,-3 -10,-4 0,-1 -8,-3 -9,-3 -7,-3 -17,-5 -22,-9 -7,-1 -14,-5 -21,-8 -9,-7 -23,-11 -30,-20 -9,-8 -20,-20 -23,-32 -1,-1 -1,-2 -2,-3 -2,-5 -3,-10 -4,-15 -1,-7 -2,-13 -3,-20 0,-5 0,-10 0,-15 3,-8 1,-20 6,-28 3,-16 13,-30 24,-42 7,-5 13,-10 20,-15 9,-4 18,-9 27,-11 15,-5 30,-8 46,-8 17,-3 37,1 54,2 14,3 28,7 41,14 6,4 12,8 18,13 1,3 5,6 7,8 6,8 12,18 15,28 7,17 6,37 6,55 -28,0 -56,1 -84,1 -4,-4 -3,-8 -3,-13 -1,-5 -2,-9 -2,-14 -3,-5 -5,-10 -7,-16 -3,-3 -6,-5 -9,-7 -3,-1 -5,-2 -7,-3 -10,-1 -21,-1 -31,0 -7,3 -14,7 -20,11 -2,3 -5,7 -7,10 -1,4 -2,8 -3,12 0,4 1,8 1,12 0,2 1,5 2,7 1,2 3,5 4,7 6,8 14,12 22,16 15,5 31,12 46,15 13,5 27,9 40,14 7,3 16,6 21,11 3,2 6,3 8,5 2,1 3,3 5,4 0,0 0,1 0,1 0,0 1,0 1,0 4,5 8,10 12,15 7,0 14,31 16,35 1,13 2,26 2,40 -1,15 -5,31 -11,45 -8,11 -15,23 -26,31 0,4 -24,15 -29,17 0,0 -1,1 -1,1 -9,2 -18,5 -27,7 -8,1 -15,1 -23,2 0,0 0,1 0,2 -15,0 -29,0 -44,0 0,-1 0,-1 0,-2 -1,0 -2,0 -3,0 0,0 0,1 0,2 -1,0 -1,0 -2,0z"/>
  <path class="fil2" d="M12926 5059c0,-1 -1,-1 -1,-2 -18,-3 -40,-11 -50,-28 0,0 -1,0 -1,0 -5,-7 -9,-14 -12,-22 -6,-7 -8,-26 -9,-34 0,-14 0,-29 0,-43 2,-8 2,-18 6,-25 3,-15 14,-32 27,-40 0,-1 1,-1 1,-2 13,-8 24,-14 38,-19 7,-3 14,-6 21,-7 2,-1 4,-2 6,-2 16,-3 31,-9 47,-12 3,-1 7,-2 10,-3 3,-1 5,-2 8,-3 4,-3 8,-5 11,-8 1,-2 2,-3 3,-5 2,-5 4,-8 4,-13 0,-7 3,-26 -3,-32 -1,-2 -1,-4 -2,-6 -1,0 -1,-1 -1,-1 0,-2 -5,-7 -6,-9 -2,-1 -4,-3 -6,-4 -3,-1 -6,-2 -8,-3 -14,-2 -38,-4 -47,9 -7,4 -9,15 -12,22 0,8 -1,16 -1,25 -28,0 -57,0 -85,1 -1,0 -1,-1 -1,-1 0,-8 0,-16 0,-24 4,-27 10,-43 26,-64 4,-4 8,-7 12,-10 8,-5 15,-10 23,-12 5,-3 11,-5 17,-6 5,-1 9,-2 14,-3 8,-1 17,-1 26,-2 11,-4 27,0 39,0 6,1 13,1 19,2 5,1 10,2 16,3 5,2 11,3 15,6 15,4 33,17 41,31 9,9 10,26 14,37 0,5 1,10 2,15 2,81 2,163 2,244 1,10 2,23 7,32 0,3 4,8 1,10 -29,0 -58,0 -87,1 -1,-1 -2,-1 -3,-2 -2,-3 -3,-6 -5,-9 -1,-4 -2,-8 -3,-11 -1,-5 -2,-9 -3,-14 -1,0 -3,1 -4,1 -9,13 -20,27 -36,33 -11,5 -25,7 -37,8 0,0 0,1 0,1 -12,0 -24,0 -36,0zm44 -65c-4,-3 -10,-4 -13,-9 -13,-13 -13,-33 -13,-50 2,-20 10,-34 27,-43 3,-1 7,-3 10,-4 17,-7 37,-9 53,-20 1,0 2,1 3,1 0,26 0,53 0,80 -2,10 -6,18 -12,25 -5,4 -9,8 -14,12 -6,2 -12,4 -18,7 -8,0 -15,1 -23,1z"/>
  <path class="fil2" d="M10343 5050c-2,-1 -5,-1 -7,-2 0,-163 0,-327 0,-490 1,0 2,-1 3,-1 30,0 60,0 91,0 2,0 3,1 5,1 0,163 0,325 1,488 -1,1 -2,2 -2,3 -30,0 -61,0 -91,1z"/>
  <path class="fil2" d="M10519 5050c-3,0 -5,-1 -7,-3 0,-122 0,-243 0,-365 0,-1 1,-3 1,-4 30,0 59,0 89,0 0,1 1,1 1,2 0,12 0,24 0,37 0,1 1,1 1,2 1,-3 2,-3 4,-5 4,-6 8,-11 13,-17 2,-1 3,-3 5,-4 0,-6 27,-17 31,-19 15,-4 31,-7 46,-7 8,1 17,2 25,3 4,1 8,2 11,3 3,1 6,3 9,4 7,6 15,10 21,16 2,2 3,4 5,6 3,5 6,11 9,16 1,4 3,7 4,11 2,10 4,19 4,29 0,96 0,193 0,289 -1,1 -1,1 -2,2 -31,0 -61,0 -92,0 -1,-1 -1,-1 -2,-2 0,-89 0,-179 0,-268 -1,-6 -3,-11 -4,-17 -1,-2 -3,-5 -4,-7 -1,0 -1,0 -1,0 -7,-9 -13,-10 -24,-13 -10,0 -19,1 -28,3 -2,1 -5,3 -7,4 -3,3 -6,5 -9,8 -3,4 -5,8 -7,12 -1,2 -2,5 -3,8 -1,6 -2,12 -2,18 0,83 0,166 0,249 0,4 -5,4 -8,5 -27,0 -54,0 -82,0z"/>
  <path class="fil2" d="M11613 5050c-2,0 -4,-2 -5,-4 0,-121 0,-242 0,-364 0,-2 1,-3 2,-4 29,0 58,0 87,0 1,0 1,0 2,1 4,12 -5,28 3,39 1,0 6,-8 7,-10 1,0 6,-6 6,-7 2,-1 8,-7 9,-9 8,-5 17,-13 27,-15 15,-8 34,-9 51,-9 8,1 16,2 24,3 5,2 11,3 15,6 4,1 16,6 17,10 13,6 22,25 26,38 3,11 6,23 7,34 0,96 0,193 0,289 -1,0 -2,1 -3,1 -30,0 -59,0 -89,0 -1,-1 -2,-1 -2,-2 -1,-88 -1,-177 -1,-265 -1,-5 -1,-10 -2,-15 -1,-3 -2,-6 -3,-9 -4,-6 -9,-10 -15,-13 -3,-1 -6,-2 -8,-3 -8,0 -15,0 -23,0 -4,1 -8,2 -11,4 -2,1 -3,2 -5,3 -7,6 -11,9 -15,17 0,2 -1,5 -3,7 -2,8 -3,16 -5,25 0,84 0,167 0,251 -1,0 -1,1 -1,1 -30,0 -59,0 -89,0z"/>
  <path class="fil2" d="M12681 5050c-1,-1 -1,-1 -1,-2 0,-122 0,-244 0,-366 0,-1 1,-3 1,-4 31,0 62,0 93,0 0,0 1,1 1,2 0,122 0,245 0,367 0,0 -1,1 -1,1 -31,0 -62,1 -92,1z"/>
  <path class="fil2" d="M12680 4641c0,-1 -1,-3 -1,-4 0,-25 0,-51 0,-76 1,-2 1,-2 3,-3 29,0 59,0 88,0 1,0 2,1 3,1 0,26 0,53 1,80 0,0 -1,1 -1,2 -31,0 -62,0 -93,1z"/>
  <path class="fil2" d="M10973 4321c-13,0 -26,-2 -39,-3 -4,-1 -16,-3 -19,-6 -2,0 -3,-1 -5,-1 -14,-6 -34,-17 -43,-30 -6,-3 -8,-11 -12,-15 -6,-13 -12,-26 -15,-40 -4,-8 -4,-17 -6,-25 -1,-12 -2,-25 -3,-37 0,-17 -1,-33 -1,-50 1,-20 3,-40 4,-60 2,-6 1,-15 5,-20 1,-5 3,-18 7,-21 2,-5 3,-9 5,-14 5,-8 9,-18 16,-23 0,-1 1,-2 1,-3 3,-1 6,-5 7,-7 6,-5 12,-9 18,-14 4,-3 8,-5 13,-7 4,-2 8,-3 13,-5 7,-2 14,-4 21,-5 7,-1 14,-2 21,-3 11,0 23,0 34,0 8,1 15,2 23,3 8,3 19,4 26,9 4,0 15,8 18,10 4,3 8,7 13,10 3,4 6,7 9,11 5,8 9,16 14,25 1,3 3,6 4,9 1,4 2,7 3,11 1,5 2,9 3,14 1,7 2,14 3,21 1,14 2,29 3,43 0,14 0,28 0,42 -63,0 -125,1 -188,2 0,12 0,24 0,35 1,10 2,21 3,32 1,4 2,8 3,12 5,13 11,24 23,32 3,1 6,2 8,3 6,0 13,0 19,0 5,-2 10,-5 15,-7 2,-2 4,-4 6,-6 5,0 13,-26 13,-29 2,-8 3,-15 5,-23 1,-1 2,-3 3,-4 27,0 55,0 83,0 0,1 1,1 1,2 0,17 -4,34 -8,50 -3,7 -6,14 -8,21 -4,8 -9,16 -16,23 -4,1 -12,11 -16,14 -5,3 -9,5 -14,8 -3,1 -6,2 -8,3 -5,1 -9,3 -13,4 -5,1 -10,2 -15,3 -7,1 -13,1 -20,2 -7,0 -13,0 -20,1zm-43 -236c-1,-1 -2,-1 -3,-2 0,-30 1,-62 27,-81 9,-4 16,-5 26,-5 10,2 15,4 23,9 2,2 4,5 7,7 1,2 2,4 3,6 1,3 2,6 3,8 1,4 2,9 3,13 1,13 2,27 4,40 0,0 -1,1 -1,1 -31,0 -62,1 -93,1z"/>
  <path class="fil2" d="M11505 4321c-6,-1 -11,-2 -16,-3 -9,-3 -29,-10 -34,-20 -9,-7 -14,-19 -20,-28 -1,-3 -2,-5 -3,-7 -1,-5 -3,-9 -4,-14 -1,-8 -2,-16 -3,-23 0,-16 -1,-37 6,-52 3,-16 14,-39 29,-46 0,-1 0,-1 0,-2 9,-5 19,-14 30,-16 13,-7 29,-11 44,-14 4,-2 11,-2 15,-5 11,-3 22,-6 33,-8 3,-1 5,-2 8,-3 5,-4 10,-7 15,-12 1,-2 2,-4 3,-6 1,-5 2,-9 3,-13 0,-5 0,-10 0,-15 -1,-5 -2,-9 -3,-14 -6,-10 -11,-18 -23,-22 -13,-1 -33,-5 -44,6 -11,4 -15,23 -17,32 0,6 -1,12 -1,18 -28,0 -56,0 -85,0 0,-7 0,-14 0,-21 1,-16 5,-33 12,-47 1,-2 3,-4 4,-6 11,-24 37,-35 59,-43 5,-1 9,-2 14,-3 8,-1 16,-2 24,-3 27,0 55,0 82,7 6,2 12,4 18,7 10,5 18,11 26,17 4,5 7,10 11,15 1,5 4,11 7,15 1,4 2,8 3,13 1,7 2,13 3,20 0,80 1,160 1,240 1,14 4,28 10,41 0,1 -1,3 -1,4 -29,0 -58,0 -87,0 -5,-2 -7,-10 -9,-15 -1,-7 -3,-15 -6,-21 0,0 -1,0 -1,0 -5,9 -14,21 -22,26 0,3 -16,9 -19,11 -6,1 -11,3 -16,4 -5,0 -13,0 -17,2 -10,0 -21,0 -31,0zm45 -63c-8,0 -15,-6 -21,-10 -2,-3 -4,-5 -5,-8 -1,-3 -2,-6 -3,-9 -1,-6 -2,-12 -3,-19 0,-14 2,-25 8,-38 1,-2 2,-3 3,-4 3,-3 7,-7 10,-10 13,-8 27,-12 42,-15 3,-1 7,-2 10,-3 5,-3 13,-6 17,-9 1,0 3,0 4,0 0,25 0,51 1,77 -1,5 -2,9 -3,14 -4,7 -8,14 -14,20 -6,3 -11,7 -17,10 -9,2 -18,4 -27,4z"/>
  <path class="fil2" d="M10339 4314c-1,0 -2,-1 -3,-1 0,-163 -1,-327 -1,-490 1,-1 2,-2 3,-2 48,0 96,0 145,0 1,3 2,7 3,10 2,10 3,20 5,29 0,1 1,2 1,3 3,17 6,36 11,53 0,6 2,13 4,19 0,5 1,11 3,16 1,10 4,20 5,29 2,6 2,15 5,19 2,10 3,20 5,30 3,7 3,16 6,24 1,11 4,22 7,32 3,26 11,52 15,77 0,0 0,1 1,1 3,-8 5,-16 6,-24 1,-6 3,-12 5,-19 2,-10 3,-20 5,-29 2,-8 3,-16 6,-24 3,-24 11,-48 14,-71 2,-8 4,-16 6,-24 5,-26 12,-54 16,-80 0,-1 1,-2 1,-3 2,-12 4,-24 8,-36 1,-11 2,-24 8,-33 48,0 96,0 144,0 0,1 1,3 2,4 0,162 0,324 0,487 -1,1 -1,1 -1,2 -30,0 -60,0 -90,0 -1,-127 -1,-255 -2,-381 0,-1 -1,-2 -1,-3 -7,21 -8,44 -15,65 -4,24 -11,47 -15,71 -4,8 -5,21 -7,30 -4,8 -6,20 -7,28 -5,17 -8,35 -12,51 -7,29 -13,59 -19,88 -2,7 -4,14 -5,22 -1,7 -3,24 -8,29 -25,0 -50,0 -74,0 -1,0 -2,-1 -2,-1 -2,-7 -4,-14 -5,-22 -6,-21 -11,-44 -15,-66 -2,-5 -2,-12 -5,-17 -3,-14 -6,-28 -8,-41 -3,-5 -2,-13 -5,-17 -1,-4 -1,-12 -3,-15 -7,-36 -17,-71 -23,-106 -5,-9 -3,-23 -8,-32 -3,-19 -9,-38 -12,-57 -1,-2 -2,-3 -2,-5 -1,-3 -2,-6 -2,-9 0,1 -1,3 -1,4 0,128 -1,255 -1,383 -29,0 -58,1 -87,1z"/>
  <path class="fil2" d="M11175 4314c-1,-1 -1,-2 -2,-2 0,-123 0,-245 0,-368 0,0 1,-1 1,-1 29,0 59,0 89,0 0,0 1,0 1,1 0,13 0,27 0,40 1,1 1,3 2,4 8,-13 17,-24 28,-35 4,-3 8,-6 13,-9 2,-1 4,-3 7,-4 3,-1 6,-3 8,-4 13,-2 32,-8 44,-1 0,29 0,58 0,88 -1,1 -1,1 -2,2 -12,0 -24,-1 -36,-1 -6,1 -12,2 -17,4 -8,4 -19,8 -25,15 -3,2 -5,5 -8,8 -3,4 -5,8 -7,13 -1,4 -2,8 -3,11 0,79 -1,157 -1,236 0,1 -1,2 -1,3 -31,0 -62,0 -93,1z"/>
  <path class="fil2" d="M11776 4314c-1,-1 -3,-2 -4,-3 0,-162 0,-324 0,-486 1,-3 1,-3 3,-4 30,0 60,0 91,0 1,1 2,3 3,4 0,50 0,99 0,149 1,1 1,2 4,2 10,-19 30,-33 51,-38 4,-4 15,-4 20,-5 9,0 19,0 29,0 7,1 13,2 20,3 12,4 24,9 34,17 0,0 0,1 0,1 1,1 2,1 3,2 0,0 0,1 0,1 7,5 12,16 15,23 2,2 3,8 4,11 1,5 2,10 3,15 0,6 1,11 2,17 0,96 0,193 0,289 0,0 -1,1 -1,1 -31,0 -62,0 -93,0 -1,-91 -1,-182 -2,-273 -2,-6 -3,-13 -7,-19 -11,-15 -28,-16 -46,-14 -8,4 -18,6 -23,13 -3,0 -8,12 -9,15 -2,9 -4,18 -5,28 0,81 0,163 0,244 -1,2 -1,4 -2,6 -30,0 -61,1 -91,1z"/>
  <path class="fil2" d="M12065 3646c-5,-3 -13,0 -18,-2 -20,-2 -40,-7 -58,-16 -2,-1 -4,-2 -6,-3 0,0 0,-1 0,-1 -16,-8 -25,-23 -33,-39 -2,-6 -3,-12 -5,-18 -1,-7 -1,-14 -2,-21 30,0 60,0 90,0 3,2 4,11 5,14 1,2 2,4 4,7 1,1 3,3 4,4 4,2 7,5 11,8 2,1 4,2 6,3 13,2 27,3 39,-1 8,-4 18,-9 21,-19 3,-3 5,-11 7,-15 6,-23 3,-49 3,-72 -1,0 -2,-1 -3,-1 -3,6 -9,10 -13,16 -4,3 -8,6 -12,9 -2,1 -4,3 -6,4 -5,2 -10,5 -15,8 -3,1 -6,2 -9,3 -6,1 -12,2 -18,3 -4,0 -8,0 -13,0 -7,-1 -14,-2 -22,-3 -5,-2 -9,-3 -14,-4 -11,-9 -27,-12 -35,-26 -1,0 -1,0 -1,0 0,-3 -9,-14 -10,-15 -4,-8 -7,-16 -10,-24 -6,-20 -10,-39 -11,-60 -1,-6 -2,-11 -2,-16 0,-22 -1,-44 -1,-66 1,-16 3,-33 4,-49 2,-11 3,-26 9,-36 1,-3 1,-7 3,-9 3,-7 6,-13 8,-20 5,-7 9,-13 14,-20 3,0 8,-10 12,-10 4,-8 20,-12 27,-16 6,-1 11,-3 17,-4 13,0 27,-1 40,1 7,3 15,4 21,8 9,4 19,12 25,21 5,3 7,13 11,17 0,-1 1,-1 2,-2 0,-10 0,-21 0,-31 1,-4 2,-4 4,-5 27,0 54,0 81,0 2,0 3,0 5,1 0,1 1,1 1,2 0,124 0,249 0,373 -1,8 -2,16 -3,24 -3,8 -6,17 -8,26 -4,7 -7,13 -10,20 -3,4 -6,7 -9,11 -5,3 -10,9 -14,14 -12,7 -27,16 -41,18 -5,2 -9,3 -15,3 -8,4 -21,2 -30,5 -9,0 -19,1 -28,1zm9 -203c-7,-2 -14,-4 -18,-9 -6,-3 -12,-16 -14,-22 -1,-5 -3,-10 -4,-15 -1,-9 -2,-18 -3,-26 0,-22 0,-44 0,-66 1,-7 0,-16 2,-23 1,-19 4,-39 15,-55 2,-2 5,-5 7,-7 3,-2 6,-3 8,-4 12,-2 21,-3 32,0 4,2 8,5 11,7 3,3 5,7 8,10 1,2 2,5 3,7 1,3 2,7 3,10 1,5 2,9 3,14 1,14 4,27 4,41 0,18 0,37 0,55 -2,12 -3,23 -4,36 -1,2 -2,3 -2,5 -1,5 -3,10 -4,15 -4,6 -8,11 -12,17 -3,2 -6,5 -9,7 -4,1 -8,2 -11,3 -5,0 -10,0 -15,1z"/>
  <path class="fil2" d="M10793 3528c-33,0 -63,-24 -72,-56 -5,-10 -6,-24 -8,-36 0,-9 0,-18 0,-26 1,-12 2,-29 8,-40 8,-23 28,-43 51,-50 5,-3 11,-6 17,-7 20,-8 42,-12 63,-18 1,-1 2,-1 4,-2 9,-2 18,-5 26,-9 6,-4 11,-9 14,-15 1,-4 2,-8 3,-12 0,-5 0,-10 0,-15 -1,-5 -2,-10 -3,-15 -2,-3 -4,-7 -6,-10 -7,-7 -12,-10 -22,-13 -7,0 -14,0 -21,0 -10,3 -23,6 -27,17 0,0 -1,0 -1,0 -2,3 -3,6 -4,8 -1,4 -2,8 -3,13 -1,7 -1,13 -1,20 -28,0 -55,0 -83,0 -5,-2 -1,-29 -1,-36 1,-5 2,-9 3,-14 3,-7 5,-13 8,-19 4,-7 9,-13 13,-19 2,-2 4,-5 7,-7 6,-4 12,-10 19,-12 6,-6 23,-10 32,-12 6,-1 11,-2 17,-3 34,-2 70,-4 103,7 5,2 14,4 18,8 6,2 10,7 15,8 0,0 0,1 0,1 4,3 8,8 11,12 6,6 10,17 13,25 0,4 1,8 3,11 1,7 2,14 3,22 0,80 1,160 1,240 0,14 6,30 10,42 -1,1 -1,1 -1,2 -30,0 -59,0 -89,0 -5,-5 -5,-12 -8,-17 0,-3 -3,-19 -6,-20 -3,3 -4,8 -7,10 -8,13 -23,24 -38,29 -8,2 -16,3 -24,5 -12,0 -24,0 -35,1zm44 -63c-7,-2 -13,-3 -19,-8 -15,-18 -16,-44 -11,-66 2,-5 5,-9 7,-14 3,-3 5,-5 8,-8 5,-3 9,-7 15,-8 8,-4 16,-6 24,-8 1,-1 1,-1 2,-1 6,-1 21,-5 24,-10 2,-1 4,-2 6,-3 1,0 2,0 3,0 0,25 0,51 0,76 -1,7 -3,16 -7,22 -4,4 -7,8 -10,13 -5,3 -9,7 -14,10 -3,1 -6,2 -9,3 -7,1 -14,2 -21,3z"/>
  <path class="fil2" d="M11314 3528c-11,0 -24,-4 -34,-8 -3,-2 -6,-4 -9,-6 -4,-3 -10,-7 -12,-11 -8,-10 -14,-22 -19,-34 -1,-4 -2,-8 -3,-12 -1,-7 -2,-14 -3,-21 0,-28 0,-59 17,-83 0,-1 1,-2 2,-2 5,-10 18,-21 28,-24 0,0 0,-1 0,-1 7,-3 14,-7 21,-8 1,-1 1,-1 2,-2 27,-8 55,-18 82,-23 5,-2 10,-5 16,-7 3,-3 6,-5 9,-7 2,-4 4,-7 6,-10 1,-3 1,-6 2,-9 0,-5 0,-9 0,-14 -1,-6 -3,-11 -4,-17 -1,-3 -3,-5 -4,-7 0,0 -1,0 -1,0 -5,-8 -13,-12 -23,-15 -8,0 -17,0 -25,0 -9,3 -15,6 -22,13 -2,3 -4,7 -6,10 -1,4 -2,7 -3,11 0,4 0,21 -3,23 -28,0 -55,0 -83,0 0,0 -1,-1 -1,-1 0,-12 -1,-24 1,-36 2,-11 7,-21 10,-30 1,-2 2,-5 4,-7 0,0 1,0 1,0 0,-2 1,-5 3,-6 3,-4 6,-8 9,-12 11,-8 23,-18 37,-22 5,-3 11,-3 17,-6 8,-1 15,-3 23,-4 22,0 44,0 65,1 8,2 18,2 25,6 16,3 31,12 43,22 0,2 3,3 4,5 8,8 13,18 17,28 1,4 2,8 3,11 1,7 2,14 3,22 0,76 1,152 1,228 0,8 1,15 1,23 1,5 2,9 3,14 2,5 4,11 6,16 0,1 0,2 0,3 -30,0 -60,1 -90,1 -6,-6 -8,-18 -9,-26 -1,-4 -2,-7 -3,-11 0,0 -1,-1 -1,-1 -3,6 -8,12 -12,17 -2,1 -8,7 -9,9 -6,3 -11,7 -16,10 -10,3 -21,6 -31,7 -12,0 -23,0 -35,1zm43 -63c-3,-1 -6,-1 -9,-2 -9,-4 -17,-11 -19,-21 -6,-11 -5,-24 -5,-37 1,-5 2,-9 3,-14 1,-3 2,-5 3,-8 5,-8 9,-13 17,-18 8,-3 15,-7 23,-10 8,-2 16,-4 24,-6 5,-4 18,-11 24,-11 0,25 0,50 1,75 -1,5 -2,10 -3,15 -2,4 -5,8 -7,13 -2,1 -3,2 -3,5 -1,0 -1,0 -1,0 -5,8 -17,13 -25,16 -8,1 -15,2 -22,3z"/>
  <path class="fil2" d="M10338 3521c-1,-1 -2,-1 -2,-1 0,-164 0,-328 0,-491 68,0 135,0 203,0 0,0 0,1 0,2 5,1 14,1 17,4 12,3 23,10 34,15 0,1 19,16 20,16 1,2 1,3 3,3 5,7 9,14 14,21 3,7 7,13 8,20 0,1 1,2 2,3 2,11 6,22 7,33 0,10 4,30 1,39 -1,9 -1,18 -2,27 -3,8 -5,17 -7,25 -2,4 -5,13 -8,16 -5,10 -12,19 -19,28 -5,4 -10,8 -15,12 0,0 0,1 0,1 -4,3 -8,5 -13,8 -13,7 -27,12 -41,15 -1,0 -2,1 -3,1 -7,1 -13,2 -20,3 -27,1 -54,1 -80,2 0,1 -1,2 -1,3 -1,64 -1,128 -1,192 -1,0 -1,1 -2,1 -32,0 -64,0 -95,0zm100 -270c-1,-1 -2,-2 -2,-3 0,-48 0,-96 0,-144 1,-1 1,-1 2,-2 20,0 41,-1 61,1 4,1 8,2 11,3 2,1 4,2 7,3 3,3 7,5 10,8 2,3 5,7 8,10 1,4 3,7 4,11 7,14 6,32 6,47 -1,6 -2,13 -3,19 -1,4 -3,7 -4,11 -3,5 -7,9 -10,14 -6,5 -12,10 -19,13 -5,1 -10,3 -14,4 -19,1 -38,1 -56,2z"/>
  <path class="fil2" d="M11072 3521c-1,-1 -2,-1 -3,-2 0,-164 0,-327 0,-491 32,0 64,0 96,0 0,163 0,327 0,491 -1,0 -2,1 -2,1 -30,0 -60,0 -90,1z"/>
  <path class="fil2" d="M11590 3521c0,-1 -1,-1 -1,-1 0,-123 0,-245 0,-368 0,-1 1,-2 1,-2 29,0 58,0 87,0 1,0 1,0 2,1 0,1 1,1 1,2 0,5 -1,37 2,39 3,-5 6,-9 8,-13 9,-10 22,-24 36,-28 8,-5 17,-6 26,-9 20,-2 42,-3 62,3 5,2 13,4 17,8 7,2 13,11 19,16 3,5 7,10 10,15 1,3 2,5 3,8 1,3 2,7 3,10 1,7 3,14 4,21 0,99 0,198 0,297 0,0 -1,0 -1,1 -31,0 -62,0 -93,0 -1,0 -1,-1 -1,-1 0,-88 -1,-175 -1,-263 -1,-6 -2,-12 -3,-17 -2,-6 -5,-12 -8,-17 -15,-11 -31,-10 -49,-7 -3,2 -6,3 -9,5 -9,5 -15,16 -18,26 -1,8 -3,15 -4,23 0,83 0,166 0,250 -1,0 -1,1 -1,1 -31,0 -62,0 -93,1z"/>
 </g>
</svg>
